<svg width="24" height="24" viewBox="0 0 24 24" fill="none" xmlns="http://www.w3.org/2000/svg">
<path opacity="0.8" d="M10.0837 13H2.9175C2.41 13 2 13.41 2 13.9162V21.0825C2 21.59 2.41 22 2.91625 22H10.0825C10.59 22 11 21.59 11 21.0837V13.9162C11 13.41 10.59 13 10.0837 13Z" fill="#475364"/>
<path opacity="0.56" d="M21.0837 13H13.9175C13.41 13 13 13.41 13 13.9162V21.0825C13 21.59 13.41 22 13.9163 22H21.0825C21.59 22 22 21.59 22 21.0837V13.9162C22 13.41 21.59 13 21.0837 13Z" fill="#475364"/>
<path d="M21.0779 2H2.92351C2.41272 2 2.00006 2.41 2.00006 2.91625V10.0825C2.00006 10.59 2.41272 11 2.92225 11H21.0766C21.5874 11 22.0001 10.59 22.0001 10.0837V2.91625C22.0001 2.41 21.5874 2 21.0779 2Z" fill="#475364"/>
</svg>
